<?xml version="1.0" encoding="UTF-8"?>
<svg id="Ebene_1" data-name="Ebene 1" xmlns="http://www.w3.org/2000/svg" xmlns:xlink="http://www.w3.org/1999/xlink" viewBox="0 0 1024 1024">
  <defs>
    <style>
      .cls-1 {
        fill: url(#linear-gradient);
      }

      .cls-2 {
        fill: #fff;
      }
    </style>
    <linearGradient id="linear-gradient" x1="68.08" y1="955.92" x2="955.92" y2="68.08" gradientUnits="userSpaceOnUse">
      <stop offset="0" stop-color="#fbb03b"/>
      <stop offset="1" stop-color="#ed1e79"/>
    </linearGradient>
    <symbol id="Symbol" viewBox="0 0 1024 1024">
      <path id="App_Icon_Placeholder" data-name="App Icon Placeholder" class="cls-1" d="M356.99,0h310c102.81,0,154.19,0,209.53,17.49,60.42,21.99,108,69.58,129.98,129.99,17.5,55.34,17.5,106.73,17.5,209.53v309.98c0,102.8,0,154.19-17.5,209.53-21.98,60.42-69.57,108-129.98,129.98-55.33,17.5-106.72,17.5-209.53,17.5h-310c-102.79,0-154.18,0-209.51-17.5-60.42-21.98-108-69.57-129.98-129.98C0,821.18,0,769.79,0,666.99v-309.98c0-102.79,0-154.18,17.5-209.53C39.48,87.07,87.07,39.48,147.48,17.49,202.82,0,254.2,0,356.99,0h0"/>
    </symbol>
  </defs>
  <g id="_1024" data-name="1024">
    <use id="_IHR_SYMBOL_" data-name="[IHR SYMBOL]" width="1024" height="1024" transform="translate(0 .5)" xlink:href="#Symbol"/>
  </g>
  <path class="cls-2" d="M322.89,552.79c47.87,9.68,90.41-3.3,131.95-22.42,10.61-4.88,11.98-14.8,14.15-24.26,7.15-31.28,18.8-60.94,35.63-88.12,8.28-13.37,19.25-31.49,37.76-24.61,17.93,6.67,14.34,27.5,9.79,41.29-14.48,43.96-21.6,88.43-18.4,134.56.28,4.06-.06,8.16.23,12.22.62,8.9-.07,19.48,12.37,20.42,10.8.82,12.41-8.89,14.87-16.53,8.24-25.62,15.86-51.44,24.53-76.91,18.27-53.68,43.82-103.31,80.04-147.71,22.19-27.2,48.6-48.49,78.61-65.63,28.14-16.07,57.89-16.33,87.71-4.08,30.12,12.38,43.09,38.16,39.8,70.72-6.06,59.88-35.53,107.41-75.51,150.19-45.96,49.19-95.98,93.58-153.55,129.06-9.18,5.66-13.33,13.5-16.13,23.33-15.19,53.32-30.76,106.52-46.18,159.78-1.36,4.7-1.71,9.93-4.05,14.06-8.31,14.63-22.04,24.43-38.15,21.35-16.74-3.2-10.57-19.84-9.92-31.06,2.77-47.95,5.78-95.92,10.27-143.74,1.34-14.24-.04-22.79-15.13-27.95-14.91-5.1-27.92-15.27-36.02-28.58-10-16.43-21.42-15.4-37.32-10.19-56.36,18.48-110.27,14.13-158.75-22.44-11.71-8.83-19.29-7.31-29.69,1.72-23.48,20.39-47.69,39.78-79.25,47.56-18.57,4.58-32.32.47-41.65-16.28-8.81-15.8-9.85-30.56,4.8-44.28,26.46-24.77,53.21-47.12,91.47-53.77,31.34-5.44,50.63-32.28,70.92-53.82,38.14-40.48,72.94-83.97,96.1-135.23,2.48-5.49,9.22-11.61,2.99-17.57-5.17-4.95-12.57-1.92-18.77-.07-25.01,7.42-43.7,25.26-64.6,39.38-7.47,5.04-14.03,13.04-23.69,5.67-9.98-7.62-14.36-18.11-9.48-30.31,16.75-41.89,87.68-88.85,143.64-60.39,29.19,14.85,42.05,43.67,33.33,78.65-6.57,26.39-17.76,50.71-35.61,71.76-31.19,36.77-61.69,74.14-97.57,106.69-4.65,4.22-10.75,7.77-11.52,17.54ZM667.9,541.26c16.87-2.72,26.46-11.72,36.37-19.5,53.95-42.36,104.46-87.5,121.7-157.78,2.26-9.22,7.24-20.81-2.02-27.22-8.08-5.59-17.38,2.19-24.53,7.08-69.51,47.63-106.74,116.42-131.52,197.41Z"/>
</svg>